<svg xmlns="http://www.w3.org/2000/svg" xmlns:xlink="http://www.w3.org/1999/xlink" viewBox="0 0 206.84 135.63">
    <defs>
        <style>
            .cls-1,
            .cls-2 {
                fill-rule: evenodd;
            }

            .cls-1 {
                fill: url(#NCL_Cloud_Blue);
            }

            .cls-2 {
                fill: gray;
            }
        </style>
        <linearGradient id="NCL_Cloud_Blue" x1="0.76" y1="65.57" x2="412.48" y2="65.57" gradientUnits="userSpaceOnUse">
            <stop offset="0" stop-color="#0092d7" />
            <stop offset="0.45" stop-color="#4bb6e7" />
            <stop offset="0.82" stop-color="#83d0f3" />
            <stop offset="1" stop-color="#98daf8" />
        </linearGradient>
    </defs>
    <title>Nordic Cloud Labs Logo</title>
    <g id="Layer_2" data-name="Layer 2">
        <g id="Layer_1-2" data-name="Layer 1">
            <path class="cls-1"
                d="M94.61,30.73c6.17-18.49,19.78-28.37,34-30.35,29.33-4.08,51.78,25.53,41.64,52.51,39.43,1,52.19,57.24,12.28,78.26L135,76.36,117.64,94.52l-15.4-19.65-3.68,3.51L85.9,63.23,55.59,102l-5.32-5.63L20.65,130.06A41.42,41.42,0,0,1,0,94.22,40.94,40.94,0,0,1,33,53.83c0-.36,0-.72,0-1.08,0-34.38,42.1-47.18,61.65-22Z" />
            <polygon class="cls-2"
                points="51.15 115.42 26 135.63 50.48 107.76 56.14 113.75 86.1 75.47 97.92 89.62 101.41 86.29 117.06 106.27 134.71 87.79 176.2 135.63 135.87 98.78 128.88 119.25 137.76 135.63 102.92 95.11 99.58 100.27 87.1 84.29 67.53 125.75 74.69 135.63 51.15 115.42 51.15 115.42" />
        </g>
    </g>
</svg>